<svg width="1200" height="750" viewBox="0 0 1200 750" xmlns="http://www.w3.org/2000/svg">
  <rect width="1200" height="750" fill="#FFFFFF"/>
  <rect x="0.5" y="0.5" width="1199" height="749" fill="none" stroke="#E5E7EB"/>
  <rect x="0" y="0" width="1200" height="56" fill="#FCFCFC"/>
  <line x1="0" y1="56" x2="1200" y2="56" stroke="#E5E7EB"/>
  <circle cx="32" cy="28" r="6" fill="#E5E7EB"/>
  <circle cx="56" cy="28" r="6" fill="#E5E7EB"/>
  <circle cx="80" cy="28" r="6" fill="#E5E7EB"/>
  <rect x="140" y="18" width="300" height="20" rx="6" fill="#F3F4F6"/>
  <rect x="0" y="56" width="220" height="694" fill="#FAFAFA"/>
  <line x1="220" y1="56" x2="220" y2="750" stroke="#E5E7EB"/>
  <rect x="24" y="88" width="172" height="14" rx="4" fill="#E5E7EB"/>
  <rect x="24" y="128" width="172" height="36" rx="8" fill="#EFF4FF"/>
  <rect x="40" y="140" width="100" height="12" rx="4" fill="#2563EB"/>
  <rect x="24" y="176" width="172" height="36" rx="8" fill="#FFFFFF"/>
  <rect x="40" y="188" width="90" height="12" rx="4" fill="#9CA3AF"/>
  <rect x="24" y="216" width="172" height="36" rx="8" fill="#FFFFFF"/>
  <rect x="40" y="228" width="110" height="12" rx="4" fill="#9CA3AF"/>
  <rect x="260" y="88" width="180" height="22" rx="5" fill="#111827"/>
  <g>
    <rect x="260" y="140" width="280" height="150" rx="12" fill="#FFFFFF" stroke="#E5E7EB"/>
    <rect x="280" y="160" width="140" height="14" rx="4" fill="#111827"/>
    <rect x="280" y="184" width="220" height="10" rx="4" fill="#D1D5DB"/>
    <rect x="280" y="200" width="180" height="10" rx="4" fill="#D1D5DB"/>
    <rect x="280" y="252" width="70" height="20" rx="6" fill="#EFF4FF"/>
    <rect x="290" y="258" width="50" height="8" rx="3" fill="#2563EB"/>
  </g>
  <g>
    <rect x="560" y="140" width="280" height="150" rx="12" fill="#FFFFFF" stroke="#E5E7EB"/>
    <rect x="580" y="160" width="140" height="14" rx="4" fill="#111827"/>
    <rect x="580" y="184" width="220" height="10" rx="4" fill="#D1D5DB"/>
    <rect x="580" y="200" width="150" height="10" rx="4" fill="#D1D5DB"/>
    <rect x="580" y="252" width="70" height="20" rx="6" fill="#F3F4F6"/>
    <rect x="590" y="258" width="50" height="8" rx="3" fill="#6B7280"/>
  </g>
  <g>
    <rect x="860" y="140" width="280" height="150" rx="12" fill="#FFFFFF" stroke="#E5E7EB"/>
    <rect x="880" y="160" width="140" height="14" rx="4" fill="#111827"/>
    <rect x="880" y="184" width="200" height="10" rx="4" fill="#D1D5DB"/>
    <rect x="880" y="200" width="160" height="10" rx="4" fill="#D1D5DB"/>
    <rect x="880" y="252" width="70" height="20" rx="6" fill="#F3F4F6"/>
    <rect x="890" y="258" width="50" height="8" rx="3" fill="#6B7280"/>
  </g>
  <rect x="260" y="320" width="880" height="120" rx="12" fill="#FFFFFF" stroke="#E5E7EB"/>
  <rect x="284" y="344" width="200" height="14" rx="4" fill="#111827"/>
  <rect x="284" y="368" width="500" height="10" rx="4" fill="#D1D5DB"/>
  <rect x="284" y="388" width="400" height="10" rx="4" fill="#D1D5DB"/>
</svg>
